<?xml version="1.0" encoding="UTF-8"?>
<svg version="1.1" xmlns="http://www.w3.org/2000/svg" width="383" height="322">
<path d="M0 0 C5.49496926 0.61055214 10.40811523 1.18730172 15.71484375 2.375 C16.89498047 2.63796875 18.07511719 2.9009375 19.29101562 3.171875 C20.49435547 3.44515625 21.69769531 3.7184375 22.9375 4 C24.16791016 4.27328125 25.39832031 4.5465625 26.66601562 4.828125 C35.72421329 6.86210664 35.72421329 6.86210664 38 8 C38.495 19.88 38.495 19.88 39 32 C34.89058117 33.02735471 33.18244191 32.84938836 29.140625 32.00390625 C28.02558594 31.77509766 26.91054687 31.54628906 25.76171875 31.31054688 C24.02341797 30.94026367 24.02341797 30.94026367 22.25 30.5625 C21.07566406 30.31951172 19.90132813 30.07652344 18.69140625 29.82617188 C15.7926507 29.22521036 12.89610299 28.61361713 10 28 C9.67 31.96 9.34 35.92 9 40 C10.36125 40.020625 11.7225 40.04125 13.125 40.0625 C22.85517663 41.02998915 34.09333474 47.12316915 41 54 C43.87693515 57.53481869 46.49945502 61.19096586 49 65 C49.78890625 66.14855469 49.78890625 66.14855469 50.59375 67.3203125 C52.45517323 70.86735788 53.2945559 74.42722216 54.1875 78.3125 C54.785625 80.849375 55.38375 83.38625 56 86 C66.89 86.495 66.89 86.495 78 87 C78 109.11 78 131.22 78 154 C28.83 154 -20.34 154 -71 154 C-71 131.89 -71 109.78 -71 87 C-63.08 87 -55.16 87 -47 87 C-47 84.69 -47 82.38 -47 80 C-45.36065901 73.16359927 -42.76743857 66.92026061 -39 61 C-38.34 61 -37.68 61 -37 61 C-36.773125 60.443125 -36.54625 59.88625 -36.3125 59.3125 C-31.25777622 50.4065581 -20.3433373 44.32776397 -11 41 C-5.555 40.505 -5.555 40.505 0 40 C0 26.8 0 13.6 0 0 Z " fill="#09127C" transform="translate(191,8)"/>
<path d="M0 0 C0.72703125 0.26683594 1.4540625 0.53367188 2.203125 0.80859375 C9.95644962 4.13778848 14.67738724 10.61634321 18.2734375 18.04296875 C19.1232269 20.33191762 19.57698976 22.5987948 20 25 C17.79344925 25.50780894 15.58466395 26.00591365 13.375 26.5 C11.53035156 26.91765625 11.53035156 26.91765625 9.6484375 27.34375 C6.32847772 27.94091621 3.36091549 28.12409534 0 28 C-0.350625 27.13375 -0.70125 26.2675 -1.0625 25.375 C-3.47630864 21.17030109 -5.65878588 18.27432207 -10 16 C-18.26172254 14.22071215 -25.05331375 14.64443512 -32.625 18.25 C-38.27722505 22.4147974 -41.1382279 27.28653847 -43 34 C-43.41406034 36.97288647 -43.47670513 39.87645027 -43.4375 42.875 C-43.43282715 43.66221436 -43.4281543 44.44942871 -43.42333984 45.26049805 C-43.26446074 51.52588896 -41.91348314 56.43886248 -39 62 C-38.3187786 63.66077079 -37.64849592 65.32617944 -37 67 C-36.34 67 -35.68 67 -35 67 C-35 67.66 -35 68.32 -35 69 C-33.576875 69.4640625 -33.576875 69.4640625 -32.125 69.9375 C-29 71 -29 71 -27 72 C-18.09079033 72.72855687 -10.67523197 72.88658222 -2.8203125 68.09375 C-1 67 -1 67 1 67 C1 63.37 1 59.74 1 56 C-5.93 56 -12.86 56 -20 56 C-20 50.72 -20 45.44 -20 40 C-6.47 40 7.06 40 21 40 C21.0825 45.8575 21.165 51.715 21.25 57.75 C21.28641602 59.59303711 21.32283203 61.43607422 21.36035156 63.33496094 C21.37203776 64.80142045 21.38222975 66.26789296 21.390625 67.734375 C21.41108887 68.49121582 21.43155273 69.24805664 21.45263672 70.02783203 C21.4549736 73.55885993 21.33777156 75.56092373 19.15136719 78.40307617 C5.54934252 88.49963125 -10.91881297 92.48134203 -27.625 90.4375 C-38.03879728 88.56328046 -48.44989975 83.47442349 -55 75 C-55.68449219 74.14535156 -55.68449219 74.14535156 -56.3828125 73.2734375 C-64.44734246 61.92514684 -65.3571046 47.41959665 -64 34 C-62.41525322 25.0822829 -58.73522543 17.04895933 -53 10 C-52.34 10 -51.68 10 -51 10 C-51 9.34 -51 8.68 -51 8 C-45.00049181 2.70256192 -38.73111277 -0.23676376 -31 -2 C-30.40058594 -2.18304688 -29.80117187 -2.36609375 -29.18359375 -2.5546875 C-19.64410628 -4.50012859 -9.02600349 -3.40687387 0 0 Z " fill="#000000" transform="translate(175,222)"/>
<path d="M0 0 C6.6 0 13.2 0 20 0 C23.51573005 6.84691039 26.64329361 13.72843963 29.50390625 20.87109375 C29.90906967 21.87406998 30.31423309 22.8770462 30.73167419 23.91041565 C31.58145209 26.01639408 32.42925164 28.12317178 33.27514648 30.23071289 C34.55835708 33.42718003 35.84798322 36.6209992 37.13867188 39.81445312 C37.9691286 41.87484744 38.79921891 43.93538949 39.62890625 45.99609375 C40.00817764 46.93601669 40.38744904 47.87593964 40.7782135 48.84434509 C43.01266312 54.41808798 45.12728772 60.02217983 47.14401245 65.67848206 C48.13507046 68.36632367 49.29841945 70.93012007 50.5625 73.5 C53.07716603 78.87859124 54.57886108 84.24064755 56 90 C49.07 90 42.14 90 35 90 C31.2890625 81.11328125 31.2890625 81.11328125 30 78 C29.61585937 77.10667969 29.23171875 76.21335937 28.8359375 75.29296875 C28 73 28 73 28 70 C10.675 70.495 10.675 70.495 -7 71 C-8.93101238 76.5041318 -8.93101238 76.5041318 -10.85913086 82.00927734 C-11.10026611 82.6945752 -11.34140137 83.37987305 -11.58984375 84.0859375 C-11.83597412 84.7876709 -12.08210449 85.4894043 -12.33569336 86.21240234 C-13 88 -13 88 -14 90 C-20.93 90 -27.86 90 -35 90 C-33.14297137 84.42891411 -31.27098552 78.91909321 -29.1875 73.4375 C-28.6613302 72.04562135 -28.13529241 70.65369279 -27.609375 69.26171875 C-27.34318359 68.55837402 -27.07699219 67.8550293 -26.80273438 67.13037109 C-26.0125984 65.03343479 -25.23131038 62.93342879 -24.453125 60.83203125 C-21.86862283 53.86341689 -19.18271241 46.96947543 -16.28125 40.125 C-14.77248722 36.44509078 -13.38119906 32.72923746 -12 29 C-8.35258119 19.16686613 -4.26056619 9.58627392 0 0 Z M9 24 C8.81824219 24.64066406 8.63648438 25.28132813 8.44921875 25.94140625 C6.93628235 31.1474592 5.14782438 36.01704744 3 41 C1.61338925 44.98399393 0.30702791 48.98877642 -1 53 C6.26 53 13.52 53 21 53 C18.8322014 46.82309014 18.8322014 46.82309014 16.6628418 40.64672852 C14.72388595 35.11435406 12.83543718 29.56757786 11 24 C10.34 24 9.68 24 9 24 Z " fill="#000000" transform="translate(50,221)"/>
<path d="M0 0 C6.46768555 4.67170014 11.01771186 10.78062233 13.36328125 18.45703125 C13.36328125 19.77703125 13.36328125 21.09703125 13.36328125 22.45703125 C10.57223782 23.12640355 7.78051102 23.79264217 4.98828125 24.45703125 C4.19421875 24.6478125 3.40015625 24.83859375 2.58203125 25.03515625 C1.44121094 25.30585938 1.44121094 25.30585938 0.27734375 25.58203125 C-0.42438965 25.74960938 -1.12612305 25.9171875 -1.84912109 26.08984375 C-3.63671875 26.45703125 -3.63671875 26.45703125 -5.63671875 26.45703125 C-5.85585938 25.93753906 -6.075 25.41804688 -6.30078125 24.8828125 C-8.47210921 20.1076563 -10.72824387 15.8199954 -15.63671875 13.45703125 C-22.57567103 11.72229318 -29.30631159 11.95999181 -35.63671875 15.45703125 C-42.06084328 21.46219114 -44.21534584 29.24948888 -44.796875 37.81640625 C-45.04823796 45.37915285 -43.5644632 52.17555091 -41.63671875 59.45703125 C-41.30184064 60.78997744 -40.96778274 62.12313263 -40.63671875 63.45703125 C-39.97671875 63.45703125 -39.31671875 63.45703125 -38.63671875 63.45703125 C-37.28170956 64.76833047 -35.95000532 66.10394812 -34.63671875 67.45703125 C-29.54631669 70.85063262 -23.57795928 70.0039809 -17.63671875 69.45703125 C-10.29674428 66.16669787 -7.47998316 59.56519228 -4.63671875 52.45703125 C-0.31740488 53.0731496 3.615369 54.09941703 7.73828125 55.51953125 C8.79789062 55.88175781 9.8575 56.24398437 10.94921875 56.6171875 C11.74585938 56.89433594 12.5425 57.17148437 13.36328125 57.45703125 C12.79024238 66.24362728 8.85902278 73.97149141 2.37109375 79.92578125 C-6.09796859 86.38467704 -16.98365641 89.689147 -27.63671875 88.45703125 C-36.1966157 86.86799889 -43.37232178 84.29996256 -50.63671875 79.45703125 C-50.63671875 78.79703125 -50.63671875 78.13703125 -50.63671875 77.45703125 C-51.29671875 77.45703125 -51.95671875 77.45703125 -52.63671875 77.45703125 C-52.63671875 76.79703125 -52.63671875 76.13703125 -52.63671875 75.45703125 C-53.29671875 75.45703125 -53.95671875 75.45703125 -54.63671875 75.45703125 C-56.29296875 73.2265625 -56.29296875 73.2265625 -58.13671875 70.26953125 C-58.74515625 69.30660156 -59.35359375 68.34367187 -59.98046875 67.3515625 C-67.30781919 54.54598072 -66.97877171 38.46004644 -63.63671875 24.45703125 C-61.92544735 19.22855099 -59.9090822 13.91934505 -56.63671875 9.45703125 C-55.97671875 9.45703125 -55.31671875 9.45703125 -54.63671875 9.45703125 C-54.38921875 8.87050781 -54.14171875 8.28398437 -53.88671875 7.6796875 C-50.65938664 1.94108759 -44.4724634 -1.5689411 -38.32421875 -3.41796875 C-36.76696197 -3.81417901 -35.20455613 -4.19094999 -33.63671875 -4.54296875 C-33.0128125 -4.72472656 -32.38890625 -4.90648437 -31.74609375 -5.09375 C-21.03577559 -7.37465109 -9.41284208 -5.50825574 0 0 Z " fill="#000000" transform="translate(272.63671875,224.54296875)"/>
<path d="M0 0 C23.76 0 47.52 0 72 0 C72 5.28 72 10.56 72 16 C63.42 16 54.84 16 46 16 C46 40.42 46 64.84 46 90 C39.73 90 33.46 90 27 90 C26 89 26 89 25.87974548 86.10838318 C25.88196609 84.81376663 25.88418671 83.51915009 25.88647461 82.18530273 C25.88632858 81.47314606 25.88618256 80.76098938 25.8860321 80.0272522 C25.8867313 77.66266888 25.89452394 75.29816339 25.90234375 72.93359375 C25.90420791 71.29834537 25.90563182 69.66309643 25.90663147 68.02784729 C25.91045682 63.71565215 25.92028725 59.40349048 25.93133545 55.09130859 C25.9415492 50.69434054 25.94612901 46.29736711 25.95117188 41.90039062 C25.96190951 33.26690998 25.97950644 24.63346301 26 16 C17.42 16 8.84 16 0 16 C0 10.72 0 5.44 0 0 Z " fill="#000000" transform="translate(294,221)"/>
<path d="M0 0 C49.17 0 98.34 0 149 0 C149 3.63 149 7.26 149 11 C99.83 11 50.66 11 0 11 C0 7.37 0 3.74 0 0 Z " fill="#07117E" transform="translate(120,165)"/>
<path d="M0 0 C3.96 0 7.92 0 12 0 C12.02464513 6.1055471 12.04283371 12.21106551 12.05493164 18.31665039 C12.05997288 20.39543156 12.06680574 22.47420916 12.07543945 24.55297852 C12.08751422 27.53402586 12.09323024 30.51502649 12.09765625 33.49609375 C12.10281754 34.43150497 12.10797882 35.3669162 12.11329651 36.33067322 C12.11337204 37.19149002 12.11344757 38.05230682 12.11352539 38.93920898 C12.115746 39.70087875 12.11796661 40.46254852 12.12025452 41.24729919 C12 43 12 43 11 44 C9.33570949 44.09823937 7.66718069 44.12973631 6 44.125 C4.63875 44.12886719 4.63875 44.12886719 3.25 44.1328125 C1 44 1 44 0 43 C-0.09268999 41.64905018 -0.11747326 40.29332909 -0.11352539 38.93920898 C-0.11344986 38.07839218 -0.11337433 37.21757538 -0.11329651 36.33067322 C-0.10813522 35.39526199 -0.10297394 34.45985077 -0.09765625 33.49609375 C-0.0962413 32.54307877 -0.09482635 31.59006378 -0.09336853 30.60816956 C-0.08775152 27.55124835 -0.07519616 24.49439923 -0.0625 21.4375 C-0.05748719 19.37044376 -0.05292391 17.30338638 -0.04882812 15.23632812 C-0.03777656 10.15752412 -0.02050055 5.0787743 0 0 Z " fill="#EFF1FC" transform="translate(141,107)"/>
<path d="M0 0 C3.96 0 7.92 0 12 0 C12 14.19 12 28.38 12 43 C8.04 43 4.08 43 0 43 C0 28.81 0 14.62 0 0 Z " fill="#F1F3F7" transform="translate(238,107)"/>
<path d="M0 0 C3.63 0 7.26 0 11 0 C11.02464513 6.1055471 11.04283371 12.21106551 11.05493164 18.31665039 C11.05997288 20.39543156 11.06680574 22.47420916 11.07543945 24.55297852 C11.08751422 27.53402586 11.09323024 30.51502649 11.09765625 33.49609375 C11.10281754 34.43150497 11.10797882 35.3669162 11.11329651 36.33067322 C11.11337204 37.19149002 11.11344757 38.05230682 11.11352539 38.93920898 C11.115746 39.70087875 11.11796661 40.46254852 11.12025452 41.24729919 C11 43 11 43 10 44 C8.50261876 44.0979057 7.00057108 44.12974864 5.5 44.125 C4.6853125 44.12757813 3.870625 44.13015625 3.03125 44.1328125 C1 44 1 44 0 43 C-0.09268999 41.64905018 -0.11747326 40.29332909 -0.11352539 38.93920898 C-0.11344986 38.07839218 -0.11337433 37.21757538 -0.11329651 36.33067322 C-0.10813522 35.39526199 -0.10297394 34.45985077 -0.09765625 33.49609375 C-0.0962413 32.54307877 -0.09482635 31.59006378 -0.09336853 30.60816956 C-0.08775152 27.55124835 -0.07519616 24.49439923 -0.0625 21.4375 C-0.05748719 19.37044376 -0.05292391 17.30338638 -0.04882812 15.23632812 C-0.03777656 10.15752412 -0.02050055 5.0787743 0 0 Z " fill="#FCFEFE" transform="translate(174,107)"/>
<path d="M0 0 C3.63 0 7.26 0 11 0 C11 14.19 11 28.38 11 43 C7.37 43 3.74 43 0 43 C0 28.81 0 14.62 0 0 Z " fill="#FAFBFE" transform="translate(206,107)"/>
<path d="M0 0 C49.17 0 98.34 0 149 0 C149 0.66 149 1.32 149 2 C147.87271532 1.99861731 147.87271532 1.99861731 146.7226572 1.99720669 C128.46300862 1.97515261 110.20336269 1.95858901 91.94370365 1.94818783 C83.11358729 1.94302461 74.28347981 1.93598143 65.45336914 1.92456055 C57.75987935 1.91461449 50.06639599 1.90814676 42.37289995 1.90591151 C38.29670348 1.90460426 34.22052539 1.90151757 30.14433479 1.89426994 C26.31212245 1.88751096 22.47993616 1.88538279 18.64771843 1.88689232 C17.23714939 1.88661594 15.82657953 1.88461009 14.41601562 1.88079453 C12.49834311 1.87585925 10.58065679 1.87760198 8.66297913 1.87974548 C7.58724671 1.87882369 6.5115143 1.8779019 5.40318394 1.87695217 C3.04819505 1.72846369 3.04819505 1.72846369 2 3 C1.67 5.31 1.34 7.62 1 10 C49.84 10 98.68 10 149 10 C149 10.33 149 10.66 149 11 C99.83 11 50.66 11 0 11 C0 7.37 0 3.74 0 0 Z " fill="#0B1367" transform="translate(120,165)"/>
<path d="M0 0 C0.33 0 0.66 0 1 0 C1.02464513 6.1055471 1.04283371 12.21106551 1.05493164 18.31665039 C1.05997288 20.39543156 1.06680574 22.47420916 1.07543945 24.55297852 C1.08751422 27.53402586 1.09323024 30.51502649 1.09765625 33.49609375 C1.10281754 34.43150497 1.10797882 35.3669162 1.11329651 36.33067322 C1.11337204 37.19149002 1.11344757 38.05230682 1.11352539 38.93920898 C1.115746 39.70087875 1.11796661 40.46254852 1.12025452 41.24729919 C1 43 1 43 0 44 C-1.51928038 44.07179964 -3.04167482 44.08392007 -4.5625 44.0625 C-5.38878906 44.05347656 -6.21507812 44.04445312 -7.06640625 44.03515625 C-7.70449219 44.02355469 -8.34257812 44.01195312 -9 44 C-9.33 43.34 -9.66 42.68 -10 42 C-5.545 41.505 -5.545 41.505 -1 41 C-0.67 27.47 -0.34 13.94 0 0 Z " fill="#DBE0F4" transform="translate(184,107)"/>
<path d="M0 0 C3.63 0 7.26 0 11 0 C11.33 0.99 11.66 1.98 12 3 C7.71 2.67 3.42 2.34 -1 2 C-0.67 1.34 -0.34 0.68 0 0 Z " fill="#0C126D" transform="translate(175,104)"/>
</svg>
